PathFileType	4	(X/Y/Z)	./resultDataOpenSim/trcMotMarkerGrf/sub09/qtm-02-05.trc
DataRate	CameraRate	NumFrames	NumMarkers	Units	OrigDataRate	OrigDataStartFrame	OrigNumFrames
250.000000	250.000000	8	24	m	250.000000	294	470
Frame#	Time	L.Toe.Tip			R.Toe.Tip			L.Ankle.Lat			R.Ankle.Lat			L.Ankle.Med			R.Ankle.Med			L.Heel			R.Heel			L.Knee.Lat			R.Knee.Lat			L.Knee.Med			R.Knee.Med			L.Thigh.Upper			R.Thigh.Upper			L.ASIS			R.ASIS			V.Sacral			L.Acromium			R.Acromium			C7			L.Elbow			R.Elbow			L.Wrist.Lat			R.Wrist.Lat
		X1	Y1	Z1	X2	Y2	Z2	X3	Y3	Z3	X4	Y4	Z4	X5	Y5	Z5	X6	Y6	Z6	X7	Y7	Z7	X8	Y8	Z8	X9	Y9	Z9	X10	Y10	Z10	X11	Y11	Z11	X12	Y12	Z12	X13	Y13	Z13	X14	Y14	Z14	X15	Y15	Z15	X16	Y16	Z16	X17	Y17	Z17	X18	Y18	Z18	X19	Y19	Z19	X20	Y20	Z20	X21	Y21	Z21	X22	Y22	Z22	X23	Y23	Z23	X24	Y24	Z24

294	1.172	0.12857536	0.014760034	0.019569716	0.97065517	0.097432293	0.13674809	0.019807419	0.11801996	-0.033434421	0.82790912	0.05962635	0.17158563	0.047979442	0.12469572	0.060769564	0.82364483	0.10045287	0.080778865	-0.057935586	0.12341636	0.0092254075	0.7742669	0.015152938	0.12301452	0.27355447	0.45590406	-0.070467902	0.70892031	0.50724322	0.22170378	0.27728909	0.44887589	0.05487971	0.69782161	0.48651612	0.09649694	0.4248594	0.83964641	-0.094173149	0.48463014	0.84095932	0.27398796	0.53693679	0.9129653	-0.051936739	0.55760292	0.92580315	0.19106029	0.38304313	0.97327028	0.083426176	0.54315699	1.3754641	-0.081934648	0.50923933	1.3798928	0.24550425	0.45940428	1.425944	0.075937828	0.44630379	1.0112261	-0.16085675	0.36222703	1.0481751	0.3210713	0.69386537	0.89684786	-0.13016194	0.47408109	0.80566338	0.36650586
295	1.176	0.12911452	0.014852164	0.019234429	0.9744162	0.089890515	0.13727429	0.02281975	0.12041066	-0.035003197	0.82982292	0.058035584	0.17059386	0.051021707	0.12663767	0.059340084	0.82795582	0.099147334	0.079913855	-0.054794684	0.12723766	0.0078684963	0.77512978	0.016286572	0.12166503	0.28081827	0.45529725	-0.070847811	0.71557877	0.50521398	0.22166322	0.28444969	0.44752113	0.054748959	0.70411886	0.48451121	0.096752233	0.4325875	0.8384476	-0.093155768	0.49308453	0.84021301	0.27452068	0.5448196	0.91174881	-0.051421617	0.56579218	0.92500133	0.19140232	0.3910456	0.97250044	0.083794196	0.54986878	1.3746958	-0.081285543	0.51600829	1.3791379	0.24618586	0.46607426	1.4249844	0.076440477	0.4525151	1.0106988	-0.16047635	0.36927479	1.0473483	0.32162102	0.69971663	0.89551827	-0.12971914	0.48120605	0.80496015	0.36738266
296	1.18	0.129645	0.014947119	0.018901819	0.97982619	0.082597486	0.13811287	0.025934129	0.12284444	-0.036570532	0.83292447	0.057447773	0.17012522	0.054240755	0.12861048	0.057863426	0.83421905	0.098575688	0.079387688	-0.051448812	0.13117531	0.0065090205	0.7769267	0.018693908	0.12028822	0.28824438	0.45457318	-0.071147282	0.72196606	0.50314656	0.22184664	0.29194278	0.4461012	0.054523083	0.71030185	0.48227444	0.097023187	0.44023464	0.83728294	-0.092259411	0.50175266	0.83948368	0.27501955	0.55276126	0.91053385	-0.050847516	0.57378136	0.92432101	0.19165219	0.39899426	0.97181855	0.084383848	0.55657302	1.3739512	-0.080675163	0.52278656	1.3784033	0.24689622	0.47276863	1.4241448	0.077091544	0.45871093	1.0101693	-0.16007612	0.37625431	1.0465324	0.32211525	0.70551098	0.89414444	-0.1293131	0.48836375	0.80425654	0.36826819
297	1.184	0.13012524	0.015039936	0.018562853	0.98595129	0.076245301	0.13896907	0.029146312	0.12535583	-0.038098342	0.83705318	0.057159702	0.17031814	0.057644978	0.13063358	0.056335375	0.8410739	0.098005528	0.079352211	-0.047867357	0.13526386	0.0051358567	0.7793599	0.021476651	0.11956846	0.29590254	0.4537707	-0.071392197	0.7282446	0.50134165	0.222114	0.29986079	0.44464509	0.054155837	0.71648412	0.48009462	0.09730703	0.44781887	0.83617391	-0.091539299	0.5105296	0.83883836	0.27553343	0.56071846	0.90933802	-0.05022821	0.58158902	0.923827	0.19186218	0.40693546	0.9712845	0.085192178	0.5632736	1.3732529	-0.080117906	0.52957153	1.3777018	0.24762996	0.47952019	1.4234584	0.077926932	0.46489612	1.00964	-0.15964077	0.38305881	1.0457517	0.32249283	0.71123942	0.89273522	-0.12894407	0.49555011	0.80355138	0.36915774
298	1.188	0.13052835	0.015135373	0.018204811	0.99155583	0.071059567	0.13973145	0.032451506	0.128002	-0.03956448	0.84169446	0.05659461	0.17096667	0.06125832	0.13272118	0.054755048	0.84698042	0.097095087	0.079767791	-0.044015985	0.1395368	0.0037830222	0.78205242	0.023910713	0.11977394	0.30383254	0.45293436	-0.071634534	0.73464692	0.50012985	0.22239935	0.30803949	0.44315699	0.053726049	0.72273356	0.47835737	0.097623384	0.4553471	0.83512382	-0.091037111	0.51930043	0.83837186	0.27610179	0.56863173	0.90819136	-0.049589491	0.58923992	0.92353292	0.19209479	0.41489879	0.9709162	0.0862535	0.56997772	1.3726237	-0.079609039	0.53636559	1.3770519	0.24838373	0.48635579	1.4229121	0.078856759	0.47106959	1.0091287	-0.15915235	0.38966106	1.0450178	0.32274284	0.71689891	0.8912943	-0.12861252	0.5027551	0.80284941	0.37004073
299	1.192	0.13087713	0.015256386	0.017822906	0.99597685	0.066588874	0.14049111	0.035846623	0.13082482	-0.040955786	0.84622805	0.055657756	0.1717815	0.065131202	0.13487734	0.053129545	0.85135433	0.096042297	0.080490433	-0.039865208	0.14400357	0.0025286827	0.78461949	0.025745741	0.1206337	0.31201141	0.45210507	-0.07193185	0.74141549	0.49974432	0.22275039	0.316203	0.44162723	0.053364588	0.72909562	0.47740414	0.098021767	0.46287045	0.83411825	-0.090675925	0.52796576	0.83817992	0.27671238	0.5764435	0.90712236	-0.048952573	0.59675497	0.92342071	0.19239905	0.4229106	0.97065535	0.087583687	0.57668773	1.3720838	-0.079136795	0.54318075	1.3764665	0.24915319	0.49327484	1.4224686	0.079738762	0.47723763	1.0086653	-0.15860245	0.39625357	1.0443207	0.32296222	0.72249523	0.88981805	-0.1283176	0.50997428	0.80216639	0.370907
300	1.196	0.1312601	0.015447902	0.017428971	0.99927904	0.062107463	0.14123676	0.039348403	0.1338181	-0.042259076	0.85016329	0.054596013	0.1725619	0.069337689	0.13709792	0.051480061	0.85458155	0.095213541	0.081328708	-0.035395824	0.14864071	0.0014620899	0.78672397	0.02711495	0.12168585	0.32039847	0.45129049	-0.07232086	0.74873621	0.50029696	0.223219	0.32436439	0.44004553	0.053061412	0.73562584	0.47740271	0.09855107	0.47046333	0.83313651	-0.090304382	0.53644033	0.83833127	0.27731566	0.584122	0.90614733	-0.048319873	0.60415356	0.92347412	0.19279973	0.43090434	0.9704305	0.088935815	0.58340235	1.3716471	-0.078692952	0.55003281	1.3759466	0.24992893	0.50023304	1.4220958	0.080511873	0.4834109	1.0082814	-0.15799851	0.40309985	1.043653	0.32330492	0.72802875	0.88830702	-0.12805621	0.51720957	0.80151987	0.37175079
301	1.2	0.13179014	0.01575919	0.017044518	1.0017892	0.05724893	0.14163768	0.043012735	0.13693949	-0.043462661	0.85325732	0.053661464	0.17318003	0.073939784	0.13937389	0.049835855	0.85719722	0.094747088	0.082060211	-0.030598085	0.15341182	0.00064265996	0.78820479	0.028229011	0.12262788	0.32901805	0.45044281	-0.072803733	0.75666989	0.50178472	0.22376227	0.33300243	0.4383644	0.052605122	0.74237483	0.47828221	0.099204583	0.47816311	0.83215562	-0.089803403	0.54465629	0.83884516	0.27787954	0.591701	0.9052802	-0.04765644	0.61145074	0.92367805	0.1932917	0.43870253	0.97023132	0.089843567	0.59012552	1.3713159	-0.07826208	0.556933	1.3754829	0.25069651	0.50717477	1.421758	0.081206748	0.48959119	1.0079955	-0.15735353	0.41025609	1.0430341	0.32383921	0.73348942	0.88676669	-0.12782309	0.524462	0.80091462	0.37256905
